<?xml version="1.0" standalone="no"?>
<!DOCTYPE svg PUBLIC "-//W3C//DTD SVG 20010904//EN"
 "http://www.w3.org/TR/2001/REC-SVG-20010904/DTD/svg10.dtd">
<svg version="1.0" xmlns="http://www.w3.org/2000/svg"
 width="128.000000pt" height="128.000000pt" viewBox="0 0 128.000000 128.000000"
 preserveAspectRatio="xMidYMid meet">
<metadata>
Created by potrace 1.14, written by Peter Selinger 2001-2017
</metadata>
<g transform="translate(0.000000,128.000000) scale(0.100000,-0.100000)"
fill="#000000" stroke="none">
<path d="M614 1267 c-8 -4 -12 -12 -9 -17 8 -13 -10 -21 -67 -26 -37 -3 -58
-11 -70 -25 -10 -12 -18 -18 -18 -14 0 3 -13 -3 -29 -14 -16 -12 -36 -21 -45
-21 -9 0 -16 -5 -16 -12 0 -6 -3 -9 -6 -6 -6 7 -54 -39 -54 -51 0 -4 -18 -26
-39 -49 -53 -55 -66 -97 -48 -157 5 -16 17 -59 28 -95 11 -36 22 -83 24 -104
3 -22 9 -44 15 -50 15 -15 12 -56 -4 -56 -16 0 -26 -21 -26 -53 0 -32 65 -158
103 -200 22 -23 44 -37 59 -37 20 0 32 -12 59 -60 39 -70 94 -133 160 -182 46
-35 47 -35 155 -35 l108 -1 33 36 c18 20 33 44 33 54 0 10 4 18 9 18 5 0 12 8
15 18 4 10 14 27 24 38 18 20 43 69 48 93 6 33 7 111 1 117 -3 4 -1 18 6 33
17 36 15 274 -2 295 -8 9 -12 35 -11 58 8 141 1 215 -25 255 -23 34 -45 57
-45 46 0 -4 -5 -1 -10 7 -5 8 -14 16 -20 16 -5 1 -15 2 -21 3 -5 0 -8 5 -5 9
4 7 -84 72 -99 72 -7 0 -13 6 -65 65 -32 36 -40 40 -83 40 -26 0 -54 -3 -63
-8z"/>
</g>
</svg>
